<svg width="1280" height="720" xmlns="http://www.w3.org/2000/svg" xmlns:xlink="http://www.w3.org/1999/xlink" overflow="hidden"><defs><clipPath id="clip0"><rect x="0" y="0" width="1280" height="720"/></clipPath></defs><g clip-path="url(#clip0)"><rect x="0" y="0" width="1280" height="720" fill="#FFFFFF"/><path d="M714.169 360.721C706.883 352.831 695.244 341.756 678.106 329.991 660.968 318.226 626.281 298.583 611.34 290.131 596.399 281.68 595.165 282.354 588.46 279.283 581.755 276.212 577.406 273.313 571.111 271.705 564.816 270.097 556.376 269.478 550.69 269.634 545.005 269.79 541.955 271.668 536.999 272.642 532.043 273.615 525.45 274.373 520.952 275.476 516.455 276.579 514.047 277.453 510.016 279.259 505.985 281.065 501.119 284.147 496.765 286.311 492.412 288.475 487.858 290.338 483.894 292.244 479.929 294.15 477.125 294.709 472.978 297.748 468.831 300.787 463.254 304.485 459.012 310.478 454.77 316.472 451.551 325.979 447.526 333.707 443.5 341.436 436.324 348.074 434.862 356.85 433.399 365.627 436.828 378.965 438.748 386.366 440.667 393.766 442.129 395.688 446.38 401.254 450.631 406.819 456.465 413.648 464.253 419.759 472.041 425.871 484.237 434.408 493.104 437.924 501.972 441.44 508.582 442.116 517.458 440.857 526.333 439.597 536.124 432.96 546.355 430.368 556.587 427.775 566.98 427.678 578.848 425.301 590.717 422.924 617.567 416.106 617.567 416.106L666.844 404.246C678.057 401.726 679.052 402.945 684.846 400.982 690.641 399.019 697.259 394.919 701.609 392.468 705.959 390.017 707.579 388.799 710.948 386.276 714.316 383.753 719.771 380.714 721.822 377.33 723.873 373.946 721.455 368.611 714.169 360.721Z" stroke="#000000" stroke-width="2" stroke-miterlimit="8" fill="#FFFFFF" fill-rule="evenodd"/><path d="M667.275 381.606C673.344 396.903 668.279 413.265 655.96 418.153" stroke="#000000" stroke-width="2" stroke-miterlimit="8" fill="none" fill-rule="evenodd"/><path d="M677.479 384.514C683.367 399.353 682.682 413.548 675.948 416.22" stroke="#000000" stroke-width="2" stroke-miterlimit="8" fill="none" fill-rule="evenodd"/><path d="M728.121 371.173C730.993 375.504 729.866 381.306 725.604 384.133 721.341 386.959 715.558 385.74 712.686 381.409 709.814 377.078 710.941 371.276 715.203 368.449 719.466 365.623 725.249 366.842 728.121 371.173Z" stroke="#000000" stroke-width="2" stroke-miterlimit="8" fill-rule="evenodd"/><path d="M732.714 339.293C728.22 355.646 709.547 364.772 691.008 359.677" stroke="#000000" stroke-width="2" stroke-miterlimit="8" fill="none" fill-rule="evenodd"/><path d="M721.873 340.622C717.8 355.439 701.034 363.75 684.424 359.184" stroke="#000000" stroke-width="2" stroke-miterlimit="8" fill="none" fill-rule="evenodd"/><path d="M722.175 331.593C717.68 347.946 699.008 357.072 680.469 351.977" stroke="#000000" stroke-width="2" stroke-miterlimit="8" fill="none" fill-rule="evenodd"/><path d="M674.813 381.757C680.865 397.012 672.376 414.694 655.85 421.251" stroke="#000000" stroke-width="2" stroke-miterlimit="8" fill="none" fill-rule="evenodd"/><path d="M440.311 349.79C434.581 340.854 428.851 331.917 419.945 326.179 411.039 320.441 396.746 314.272 386.874 315.36 377.001 316.448 367.588 324.146 360.71 332.709 353.832 341.273 358.648 359.185 345.608 366.74 332.569 374.295 282.473 378.04 282.473 378.04L282.473 378.04" stroke="#000000" stroke-width="2" stroke-miterlimit="8" fill="none" fill-rule="evenodd"/><path d="M654.453 332.865C659.677 334.747 662.263 340.85 660.229 346.495 658.195 352.141 652.311 355.192 647.087 353.31 641.863 351.427 639.276 345.325 641.31 339.679 643.344 334.034 649.229 330.983 654.453 332.865Z" stroke="#000000" stroke-width="2" stroke-miterlimit="8" fill-rule="evenodd"/><path d="M643.326 364.448C648.55 366.33 651.136 372.433 649.102 378.078 647.068 383.724 641.184 386.774 635.96 384.892 630.736 383.01 628.149 376.907 630.183 371.262 632.217 365.616 638.101 362.566 643.326 364.448Z" stroke="#000000" stroke-width="2" stroke-miterlimit="8" fill-rule="evenodd"/><path d="M609.288 409.083C609.079 412.257 608.869 415.43 607.382 419.648 605.895 423.866 603.389 430.147 600.365 434.388 597.341 438.629 593.441 442.531 589.237 445.095 585.033 447.659 579.881 449.65 575.139 449.77 570.398 449.891 564.8 447.894 560.786 445.818 556.772 443.743 553.835 440.756 551.053 437.318 548.271 433.881 545.716 430.227 544.095 425.194 542.474 420.16 541.531 413.043 541.328 407.118 541.125 401.192 541.196 395.685 542.877 389.642 544.558 383.599 547.796 375.753 551.413 370.858 555.031 365.964 560.387 362.665 564.582 360.272 568.776 357.88 573.607 356.961 576.578 356.506 579.548 356.051 580.975 356.796 582.403 357.541" stroke="#000000" stroke-width="2" stroke-miterlimit="8" fill="#FFFFFF" fill-rule="evenodd"/><path d="M588.171 342.135C585.63 342.772 583.089 343.409 579.281 342.838 575.473 342.267 569.698 341.077 565.323 338.71 560.949 336.344 556.525 332.857 553.033 328.64 549.541 324.423 546.156 318.937 544.37 313.411 542.585 307.884 542.139 300.766 542.32 295.481 542.5 290.197 543.773 285.923 545.452 281.705 547.13 277.487 549.058 273.474 552.391 270.174 555.723 266.873 560.918 263.788 565.45 261.902 569.981 260.016 574.286 258.567 579.582 258.857 584.877 259.147 592.129 260.762 597.223 263.642 602.317 266.522 606.792 271.886 610.147 276.138 613.503 280.391 615.941 285.8 617.354 289.156 618.768 292.513 618.698 294.393 618.629 296.274" stroke="#000000" stroke-width="2" stroke-miterlimit="8" fill="#FFFFFF" fill-rule="evenodd"/><path d="M602.27 415.348C602.06 418.522 601.85 421.696 600.363 425.913 598.876 430.131 596.371 436.412 593.346 440.653 590.322 444.894 586.423 448.797 582.218 451.36 578.014 453.924 572.863 455.915 568.121 456.035 563.379 456.156 557.782 454.159 553.768 452.084 549.753 450.008 546.817 447.021 544.035 443.584 541.253 440.146 538.697 436.492 537.076 431.459 535.455 426.426 534.513 419.308 534.31 413.383 534.107 407.458 534.177 401.95 535.858 395.907 537.539 389.864 540.777 382.019 544.395 377.124 548.012 372.229 553.369 368.93 557.563 366.538 561.757 364.146 566.589 363.227 569.559 362.771 572.529 362.316 573.957 363.061 575.384 363.806" stroke="#000000" stroke-width="2" stroke-miterlimit="8" fill="#FFFFFF" fill-rule="evenodd"/><path d="M581.152 348.4C578.611 349.037 576.07 349.674 572.262 349.103 568.454 348.532 562.68 347.342 558.305 344.976 553.93 342.609 549.507 339.122 546.014 334.905 542.522 330.689 539.137 325.202 537.352 319.676 535.566 314.149 535.121 307.031 535.301 301.747 535.481 296.462 536.755 292.188 538.433 287.97 540.112 283.752 542.039 279.739 545.372 276.439 548.705 273.138 553.899 270.053 558.431 268.167 562.963 266.281 567.267 264.832 572.563 265.122 577.859 265.412 585.11 267.027 590.204 269.907 595.299 272.787 599.774 278.151 603.129 282.403 606.484 286.656 608.922 292.066 610.336 295.422 611.749 298.778 611.68 300.659 611.61 302.539" stroke="#000000" stroke-width="2" stroke-miterlimit="8" fill="#FFFFFF" fill-rule="evenodd"/></g></svg>