<?xml version="1.0" encoding="UTF-8" standalone="no"?>
<!-- Created with Inkscape (http://www.inkscape.org/) -->

<svg
   xmlns:osb="http://www.openswatchbook.org/uri/2009/osb"
   xmlns:dc="http://purl.org/dc/elements/1.1/"
   xmlns:cc="http://creativecommons.org/ns#"
   xmlns:rdf="http://www.w3.org/1999/02/22-rdf-syntax-ns#"
   xmlns:svg="http://www.w3.org/2000/svg"
   xmlns="http://www.w3.org/2000/svg"
   xmlns:sodipodi="http://sodipodi.sourceforge.net/DTD/sodipodi-0.dtd"
   xmlns:inkscape="http://www.inkscape.org/namespaces/inkscape"
   width="81.717827mm"
   height="69.33651mm"
   viewBox="0 0 289.55135 245.68055"
   id="svg2"
   version="1.1"
   inkscape:version="0.91 r13725"
   sodipodi:docname="mouse_head_brain.svg">
  <defs
     id="defs4">
    <inkscape:path-effect
       cusp_linecap_type="round"
       end_linecap_type="zerowidth"
       miter_limit="4"
       linejoin_type="round"
       start_linecap_type="zerowidth"
       interpolator_beta="0.2"
       interpolator_type="Linear"
       sort_points="true"
       offset_points="0,10.682919"
       is_visible="true"
       id="path-effect4322"
       effect="powerstroke" />
    <inkscape:path-effect
       cusp_linecap_type="round"
       end_linecap_type="zerowidth"
       miter_limit="4"
       linejoin_type="round"
       start_linecap_type="zerowidth"
       interpolator_beta="0.2"
       interpolator_type="Linear"
       sort_points="true"
       offset_points="0,10.708834"
       is_visible="true"
       id="path-effect4227"
       effect="powerstroke" />
    <inkscape:path-effect
       cusp_linecap_type="round"
       end_linecap_type="zerowidth"
       miter_limit="4"
       linejoin_type="round"
       start_linecap_type="zerowidth"
       interpolator_beta="0.2"
       interpolator_type="Linear"
       sort_points="true"
       offset_points="0,10.708834"
       is_visible="true"
       id="path-effect4223"
       effect="powerstroke" />
    <inkscape:path-effect
       cusp_linecap_type="round"
       end_linecap_type="zerowidth"
       miter_limit="4"
       linejoin_type="round"
       start_linecap_type="zerowidth"
       interpolator_beta="0.2"
       interpolator_type="Linear"
       sort_points="true"
       offset_points="0,10.708834"
       is_visible="true"
       id="path-effect6895"
       effect="powerstroke" />
    <inkscape:path-effect
       effect="powerstroke"
       id="path-effect6887"
       is_visible="true"
       offset_points="0,10.721739"
       sort_points="true"
       interpolator_type="Linear"
       interpolator_beta="0.2"
       start_linecap_type="zerowidth"
       linejoin_type="round"
       miter_limit="4"
       end_linecap_type="zerowidth"
       cusp_linecap_type="round" />
    <linearGradient
       id="linearGradient6365"
       osb:paint="solid">
      <stop
         style="stop-color:#000000;stop-opacity:1;"
         offset="0"
         id="stop6367" />
    </linearGradient>
    <inkscape:path-effect
       effect="powerstroke"
       id="path-effect6336"
       is_visible="true"
       offset_points="0,18.215758"
       sort_points="true"
       interpolator_type="Linear"
       interpolator_beta="0.2"
       start_linecap_type="zerowidth"
       linejoin_type="round"
       miter_limit="4"
       end_linecap_type="zerowidth"
       cusp_linecap_type="round" />
    <inkscape:path-effect
       effect="powerstroke"
       id="path-effect6332"
       is_visible="true"
       offset_points="0,1"
       sort_points="true"
       interpolator_type="Linear"
       interpolator_beta="0.2"
       start_linecap_type="zerowidth"
       linejoin_type="round"
       miter_limit="4"
       end_linecap_type="zerowidth"
       cusp_linecap_type="round" />
    <inkscape:path-effect
       effect="powerstroke"
       id="path-effect6328"
       is_visible="true"
       offset_points="0,1"
       sort_points="true"
       interpolator_type="Linear"
       interpolator_beta="0.2"
       start_linecap_type="zerowidth"
       linejoin_type="round"
       miter_limit="4"
       end_linecap_type="zerowidth"
       cusp_linecap_type="round" />
    <inkscape:path-effect
       cusp_linecap_type="round"
       end_linecap_type="zerowidth"
       miter_limit="4"
       linejoin_type="round"
       start_linecap_type="zerowidth"
       interpolator_beta="0.2"
       interpolator_type="Linear"
       sort_points="true"
       offset_points="0,0.72957997"
       is_visible="true"
       id="path-effect4771"
       effect="powerstroke" />
    <inkscape:path-effect
       effect="powerstroke"
       id="path-effect4767"
       is_visible="true"
       offset_points="0,0.72957997"
       sort_points="true"
       interpolator_type="Linear"
       interpolator_beta="0.2"
       start_linecap_type="zerowidth"
       linejoin_type="round"
       miter_limit="4"
       end_linecap_type="zerowidth"
       cusp_linecap_type="round" />
    <inkscape:path-effect
       cusp_linecap_type="round"
       end_linecap_type="zerowidth"
       miter_limit="4"
       linejoin_type="round"
       start_linecap_type="zerowidth"
       interpolator_beta="0.2"
       interpolator_type="Linear"
       sort_points="true"
       offset_points="0,0.73209843"
       is_visible="true"
       id="path-effect4335"
       effect="powerstroke" />
    <inkscape:path-effect
       effect="powerstroke"
       id="path-effect4331"
       is_visible="true"
       offset_points="0,0.73209843"
       sort_points="true"
       interpolator_type="Linear"
       interpolator_beta="0.2"
       start_linecap_type="zerowidth"
       linejoin_type="round"
       miter_limit="4"
       end_linecap_type="zerowidth"
       cusp_linecap_type="round" />
    <inkscape:path-effect
       cusp_linecap_type="round"
       end_linecap_type="zerowidth"
       miter_limit="4"
       linejoin_type="round"
       start_linecap_type="zerowidth"
       interpolator_beta="0.2"
       interpolator_type="Linear"
       sort_points="true"
       offset_points="0,0.73209843"
       is_visible="true"
       id="path-effect4327"
       effect="powerstroke" />
    <inkscape:path-effect
       effect="powerstroke"
       id="path-effect4323"
       is_visible="true"
       offset_points="0,0.73209843"
       sort_points="true"
       interpolator_type="Linear"
       interpolator_beta="0.2"
       start_linecap_type="zerowidth"
       linejoin_type="round"
       miter_limit="4"
       end_linecap_type="zerowidth"
       cusp_linecap_type="round" />
    <inkscape:path-effect
       cusp_linecap_type="round"
       end_linecap_type="zerowidth"
       miter_limit="4"
       linejoin_type="round"
       start_linecap_type="zerowidth"
       interpolator_beta="0.2"
       interpolator_type="Linear"
       sort_points="true"
       offset_points="0,1.1533126"
       is_visible="true"
       id="path-effect4319"
       effect="powerstroke" />
    <inkscape:path-effect
       effect="powerstroke"
       id="path-effect4315"
       is_visible="true"
       offset_points="0,0.73209843"
       sort_points="true"
       interpolator_type="Linear"
       interpolator_beta="0.2"
       start_linecap_type="zerowidth"
       linejoin_type="round"
       miter_limit="4"
       end_linecap_type="zerowidth"
       cusp_linecap_type="round" />
    <inkscape:path-effect
       cusp_linecap_type="round"
       end_linecap_type="zerowidth"
       miter_limit="4"
       linejoin_type="round"
       start_linecap_type="zerowidth"
       interpolator_beta="0.2"
       interpolator_type="Linear"
       sort_points="true"
       offset_points="0,0.73209843"
       is_visible="true"
       id="path-effect4290"
       effect="powerstroke" />
    <inkscape:path-effect
       effect="powerstroke"
       id="path-effect4286"
       is_visible="true"
       offset_points="0,0.73209843"
       sort_points="true"
       interpolator_type="Linear"
       interpolator_beta="0.2"
       start_linecap_type="zerowidth"
       linejoin_type="round"
       miter_limit="4"
       end_linecap_type="zerowidth"
       cusp_linecap_type="round" />
    <inkscape:path-effect
       cusp_linecap_type="round"
       end_linecap_type="zerowidth"
       miter_limit="4"
       linejoin_type="round"
       start_linecap_type="zerowidth"
       interpolator_beta="0.2"
       interpolator_type="Linear"
       sort_points="true"
       offset_points="0,0.73209843"
       is_visible="true"
       id="path-effect4261"
       effect="powerstroke" />
    <inkscape:path-effect
       effect="powerstroke"
       id="path-effect4236"
       is_visible="true"
       offset_points="0,1.1533126"
       sort_points="true"
       interpolator_type="Linear"
       interpolator_beta="0.2"
       start_linecap_type="zerowidth"
       linejoin_type="round"
       miter_limit="4"
       end_linecap_type="zerowidth"
       cusp_linecap_type="round" />
    <linearGradient
       id="linearGradient4223"
       osb:paint="solid">
      <stop
         style="stop-color:#000000;stop-opacity:1;"
         offset="0"
         id="stop4225" />
    </linearGradient>
  </defs>
  <sodipodi:namedview
     id="base"
     pagecolor="#ffffff"
     bordercolor="#666666"
     borderopacity="1.0"
     inkscape:pageopacity="0.0"
     inkscape:pageshadow="2"
     inkscape:zoom="2.8"
     inkscape:cx="135.00134"
     inkscape:cy="122.38619"
     inkscape:document-units="px"
     inkscape:current-layer="g4194"
     showgrid="false"
     inkscape:window-width="1280"
     inkscape:window-height="751"
     inkscape:window-x="0"
     inkscape:window-y="0"
     inkscape:window-maximized="0"
     fit-margin-top="10"
     fit-margin-left="10"
     fit-margin-right="10"
     fit-margin-bottom="10" />
  <metadata
     id="metadata7">
    <rdf:RDF>
      <cc:Work
         rdf:about="">
        <dc:format>image/svg+xml</dc:format>
        <dc:type
           rdf:resource="http://purl.org/dc/dcmitype/StillImage" />
        <dc:title />
      </cc:Work>
    </rdf:RDF>
  </metadata>
  <g
     inkscape:label="Livello 1"
     inkscape:groupmode="layer"
     id="layer1"
     style="opacity:0.95099996"
     transform="translate(-11.051677,-20.140338)">
    <g
       id="g4579">
      <g
         id="g4569" />
      <g
         transform="matrix(1,0,0,-1,-0.7142857,913.02229)"
         id="g4573" />
    </g>
    <g
       id="g4593"
       style="stroke:#999999"
       transform="matrix(0.78306839,-1.1200389e-4,-0.06455417,0.73974455,4.9668606,113.52776)" />
    <g
       id="g5065"
       transform="matrix(0.94359163,0.3311115,-0.3311115,0.94359163,121.34089,-161.23264)">
      <g
         id="g4194">
        <g
           id="g6714"
           transform="matrix(0.38887761,-0.13852266,0.13839549,0.38879897,-43.915858,133.16943)">
          <g
             transform="matrix(1.2290028,0,0,1.2290028,-11.099294,-63.351114)"
             id="g6539">
            <path
               sodipodi:nodetypes="cc"
               inkscape:connector-curvature="0"
               inkscape:original-d="M 107.45194,386.35138 C 107.9295,353.70778 87.107715,334.9029 87.107715,334.9029"
               inkscape:path-effect="#path-effect4261"
               id="path4259"
               d="m 108.18396,386.36209 c 0.2387,-33.03585 -20.971048,-51.57567 -21.076245,-51.45919 -0.104072,0.11523 20.327505,19.18767 19.612205,51.43777 z"
               style="opacity:1;fill:#000000;fill-opacity:1;stroke:none;stroke-width:2;stroke-miterlimit:4;stroke-dasharray:none;stroke-opacity:1" />
            <path
               style="opacity:1;fill:#000000;fill-opacity:1;stroke:none;stroke-width:2;stroke-miterlimit:4;stroke-dasharray:none;stroke-opacity:1"
               d="M 104.47693,388.15476 C 101.74561,378.14065 92.818146,364.11661 82.655772,351.33423 72.46704,338.5187 60.963054,326.86262 52.993034,321.60863 c 7.814711,5.44352 19.12264,17.25301 29.086299,30.17692 9.987781,12.95519 18.560947,26.95245 20.980597,36.73799 z"
               id="path4284"
               inkscape:path-effect="#path-effect4286"
               inkscape:original-d="M 103.76843,388.33915 C 98.614672,368.53693 68.778313,332.30685 52.993034,321.60863"
               inkscape:connector-curvature="0"
               sodipodi:nodetypes="cc" />
            <path
               sodipodi:nodetypes="cc"
               inkscape:connector-curvature="0"
               inkscape:original-d="M 99.797985,391.70272 C 88.071456,372.5129 67.097462,357.37679 49.714528,347.74884"
               inkscape:path-effect="#path-effect4290"
               id="path4288"
               d="M 100.42268,391.32098 C 88.405947,372.12305 67.178837,357.14348 49.714528,347.74884 67.014902,357.6106 87.73815,372.90224 99.17329,392.08446 Z"
               style="opacity:1;fill:#000000;fill-opacity:1;stroke:none;stroke-width:2;stroke-miterlimit:4;stroke-dasharray:none;stroke-opacity:1" />
            <path
               style="opacity:1;fill:#000000;fill-opacity:1;stroke:none;stroke-width:2;stroke-miterlimit:4;stroke-dasharray:none;stroke-opacity:1"
               d="m 94.269805,395.67798 0.506152,-0.52894 C 78.181179,379.6076 72.885497,376.4187 57.573887,368.84295 c 15.095862,8.01366 20.023719,11.55722 36.189766,27.36397 l 0.506152,-0.52894 z"
               id="path4313"
               inkscape:path-effect="#path-effect4315"
               inkscape:original-d="M 94.269805,395.67798 C 77.890855,380.0047 72.77616,376.63684 57.573887,368.84295"
               inkscape:connector-curvature="0"
               sodipodi:nodetypes="cc" />
            <path
               style="opacity:1;fill:#000000;fill-opacity:1;stroke:none;stroke-width:2;stroke-miterlimit:4;stroke-dasharray:none;stroke-opacity:1"
               d="m 114.94937,381.96601 c 0.21622,-32.58597 -10.52281,-40.63511 -10.68733,-40.42098 -0.16427,0.2138 9.92596,8.16968 9.22831,40.4004 z"
               id="path4765"
               inkscape:path-effect="#path-effect4767"
               inkscape:original-d="m 114.21986,381.95572 c 0.45706,-32.40851 -9.95782,-40.41069 -9.95782,-40.41069"
               inkscape:connector-curvature="0"
               sodipodi:nodetypes="cc" />
          </g>
          <g
             id="g6599"
             transform="matrix(1.2290028,0,0,-1.2290028,-11.099294,966.59431)">
            <path
               style="opacity:1;fill:#000000;fill-opacity:1;stroke:none;stroke-width:2;stroke-miterlimit:4;stroke-dasharray:none;stroke-opacity:1"
               d="m 108.18396,386.36209 c 0.2387,-33.03585 -20.971048,-51.57567 -21.076245,-51.45919 -0.104072,0.11523 20.327505,19.18767 19.612205,51.43777 z"
               id="path6601"
               inkscape:path-effect="#path-effect4261"
               inkscape:original-d="M 107.45194,386.35138 C 107.9295,353.70778 87.107715,334.9029 87.107715,334.9029"
               inkscape:connector-curvature="0"
               sodipodi:nodetypes="cc" />
            <path
               sodipodi:nodetypes="cc"
               inkscape:connector-curvature="0"
               inkscape:original-d="M 103.76843,388.33915 C 98.614672,368.53693 68.778313,332.30685 52.993034,321.60863"
               inkscape:path-effect="#path-effect4286"
               id="path6603"
               d="M 104.47693,388.15476 C 101.74561,378.14065 92.818146,364.11661 82.655772,351.33423 72.46704,338.5187 60.963054,326.86262 52.993034,321.60863 c 7.814711,5.44352 19.12264,17.25301 29.086299,30.17692 9.987781,12.95519 18.560947,26.95245 20.980597,36.73799 z"
               style="opacity:1;fill:#000000;fill-opacity:1;stroke:none;stroke-width:2;stroke-miterlimit:4;stroke-dasharray:none;stroke-opacity:1" />
            <path
               style="opacity:1;fill:#000000;fill-opacity:1;stroke:none;stroke-width:2;stroke-miterlimit:4;stroke-dasharray:none;stroke-opacity:1"
               d="M 100.42268,391.32098 C 88.405947,372.12305 67.178837,357.14348 49.714528,347.74884 67.014902,357.6106 87.73815,372.90224 99.17329,392.08446 Z"
               id="path6605"
               inkscape:path-effect="#path-effect4290"
               inkscape:original-d="M 99.797985,391.70272 C 88.071456,372.5129 67.097462,357.37679 49.714528,347.74884"
               inkscape:connector-curvature="0"
               sodipodi:nodetypes="cc" />
            <path
               sodipodi:nodetypes="cc"
               inkscape:connector-curvature="0"
               inkscape:original-d="M 94.269805,395.67798 C 77.890855,380.0047 72.77616,376.63684 57.573887,368.84295"
               inkscape:path-effect="#path-effect4315"
               id="path6607"
               d="m 94.269805,395.67798 0.506152,-0.52894 C 78.181179,379.6076 72.885497,376.4187 57.573887,368.84295 c 15.095862,8.01366 20.023719,11.55722 36.189766,27.36397 l 0.506152,-0.52894 z"
               style="opacity:1;fill:#000000;fill-opacity:1;stroke:none;stroke-width:2;stroke-miterlimit:4;stroke-dasharray:none;stroke-opacity:1" />
            <path
               sodipodi:nodetypes="cc"
               inkscape:connector-curvature="0"
               inkscape:original-d="m 114.21986,381.95572 c 0.45706,-32.40851 -9.95782,-40.41069 -9.95782,-40.41069"
               inkscape:path-effect="#path-effect4767"
               id="path6609"
               d="m 114.94937,381.96601 c 0.21622,-32.58597 -10.52281,-40.63511 -10.68733,-40.42098 -0.16427,0.2138 9.92596,8.16968 9.22831,40.4004 z"
               style="opacity:1;fill:#000000;fill-opacity:1;stroke:none;stroke-width:2;stroke-miterlimit:4;stroke-dasharray:none;stroke-opacity:1" />
          </g>
        </g>
        <g
           id="g6728"
           transform="matrix(0.38887761,-0.13852266,0.13839549,0.38879897,-49.57741,135.15609)">
          <g
             transform="matrix(0.81352821,-1.1664837e-4,0.06706521,-0.77041968,-66.82699,802.97974)"
             id="g4608">
            <path
               sodipodi:nodetypes="ccc"
               inkscape:connector-curvature="0"
               id="path4610"
               d="m 330.31988,542.23517 c 0,0 -16.66752,-17.17259 -24.24366,-18.68782 -11.61676,-2.52538 -28.28427,-8.08123 -34.34519,-11.61676"
               style="opacity:1;fill:none;fill-opacity:1;stroke:#000000;stroke-width:3.25860572;stroke-miterlimit:4;stroke-dasharray:none;stroke-opacity:1" />
            <path
               sodipodi:nodetypes="cccccc"
               inkscape:connector-curvature="0"
               id="path4612"
               d="m 320.4709,533.39634 c 0,0 -12.87945,8.83883 -25.7589,3.03045 -10.26328,-5.2832 -13.88959,-20.45559 -13.88959,-20.45559 l 10.6066,3.53553 17.67767,4.79823 c 6.81853,4.04061 11.36422,9.09138 11.36422,9.09138 z"
               style="opacity:1;fill:#000000;fill-opacity:1;stroke:#000000;stroke-width:3.25860572;stroke-miterlimit:4;stroke-dasharray:none;stroke-opacity:1" />
          </g>
          <g
             id="g6611"
             transform="matrix(0.81352821,1.1664837e-4,0.06706521,0.77041968,-66.82699,100.26346)">
            <path
               style="opacity:1;fill:none;fill-opacity:1;stroke:#000000;stroke-width:3.25860572;stroke-miterlimit:4;stroke-dasharray:none;stroke-opacity:1"
               d="m 330.31988,542.23517 c 0,0 -16.66752,-17.17259 -24.24366,-18.68782 -11.61676,-2.52538 -28.28427,-8.08123 -34.34519,-11.61676"
               id="path6613"
               inkscape:connector-curvature="0"
               sodipodi:nodetypes="ccc" />
            <path
               style="opacity:1;fill:#000000;fill-opacity:1;stroke:#000000;stroke-width:3.25860572;stroke-miterlimit:4;stroke-dasharray:none;stroke-opacity:1"
               d="m 320.4709,533.39634 c 0,0 -12.87945,8.83883 -25.7589,3.03045 -10.26328,-5.2832 -13.88959,-20.45559 -13.88959,-20.45559 l 10.6066,3.53553 17.67767,4.79823 c 6.81853,4.04061 11.36422,9.09138 11.36422,9.09138 z"
               id="path6615"
               inkscape:connector-curvature="0"
               sodipodi:nodetypes="cccccc" />
          </g>
        </g>
        <path
           sodipodi:nodetypes="ccccccccccccccccscscccccccccccccccc"
           inkscape:connector-curvature="0"
           id="path6619"
           style="opacity:1;fill:none;fill-opacity:1;stroke:#000000;stroke-width:1.60599995;stroke-miterlimit:4;stroke-dasharray:none;stroke-opacity:1"
           d="m 183.14099,282.36366 31.35854,5.82444 c 7.81841,1.46415 9.84539,6.40784 9.84539,6.40784 3.67491,6.24278 -0.11065,13.97269 -0.11065,13.97269 -8.53233,10.30368 -33.89075,11.28349 -33.89075,11.28349 -16.44207,1.13055 -27.2713,-2.57313 -33.44353,-12.09798 m 6.43451,-2.874 c 4.98506,-3.55131 22.94876,-12.41905 32.4813,-14.2763 13.04897,-2.18777 22.55406,-3.21492 28.3443,3.70934 m -97.21333,-82.36226 -14.82171,8.82323 c -9.29397,6.52699 -12.639461,6.17461 -21.886128,18.71115 -3.534929,5.54575 -12.678298,6.62765 -19.027471,17.86912 l -5.651956,7.94583 c 0,0 -2.420471,2.82747 -8.331555,9.90663 0,0 -4.40262,4.03539 -5.654601,12.57022 0,0 -1.097312,1.10867 -1.166515,3.89183 -0.06763,2.71978 0.744733,5.04518 0.744733,5.04518 0,0 1.13365,3.14159 2.904421,5.20651 1.812037,2.11304 3.36285,2.27841 3.36285,2.27841 6.362553,5.82246 12.323907,6.16608 12.323907,6.16608 9.053397,1.74864 12.683898,2.32054 12.683898,2.32054 l 9.400146,2.5841 c 12.022651,4.69721 19.791811,-0.24532 26.035001,1.81735 15.08628,3.86886 17.42458,1.39173 28.75067,0.57361 l 17.06054,-2.53359 m -0.93957,-90.09507 20.62123,-24.34024 c 5.13378,-6.07787 3.58114,-11.19052 3.58114,-11.19052 -1.09635,-7.16129 -8.91373,-10.7581 -8.91373,-10.7581 -13.12198,-2.59018 -33.39239,12.68353 -33.39239,12.68353 -13.45598,9.51948 -19.50804,19.23647 -18.27335,30.52013 m 6.80219,-1.84107 c 6.10688,-0.39976 25.63042,-4.88541 34.19101,-9.47314 11.49447,-6.55489 19.50935,-11.76855 19.6217,-20.79537" />
        <path
           inkscape:connector-curvature="0"
           id="path6621"
           style="opacity:1;fill:none;fill-opacity:1;stroke:#b3b3b3;stroke-width:1.60583341;stroke-miterlimit:4;stroke-dasharray:none;stroke-opacity:1"
           d="m 145.45553,263.07148 c 1.74177,-0.76731 8.53766,3.11845 11.11912,4.86493 2.24277,1.73685 12.64502,9.26736 12.10008,13.03993 0,0 -0.42062,3.58908 -3.20674,5.92866 0,0 -5.39973,4.4327 -13.13123,6.13221 -15.07873,2.87118 -19.69039,3.1557 -27.0787,1.5243 0,0 -7.71937,-2.08898 -15.26461,-6.69742 -2.53935,-1.57715 -3.26138,-3.43852 -4.12997,-5.33677 0,0 -1.65432,-4.20313 0.52538,-5.42071 4.51049,-1.7531 37.2091,-13.52091 39.06667,-14.03513 z m -39.20749,14.10681 c 0,0 -14.689984,5.06828 -15.721342,5.79971 -1.088304,0.85577 -2.415331,2.17562 -1.706779,3.84851 0.401455,1.00177 3.843852,2.42973 7.660855,3.30807 1.955222,0.29245 6.489436,0.49918 10.029456,-0.96935 1.10524,-0.44555 2.29048,-1.96021 2.29048,-1.96021 m 37.07902,-24.25471 13.42432,-4.7985 c 3.18174,1.14827 6.029,5.46079 6.65599,7.88658 0.81835,3.0199 -3.59126,6.57668 -3.59126,6.57668 m 19.42469,-22.85265 c 1.17689,3.92218 3.10963,10.37143 0.53934,14.37684 0,0 0.72295,2.45437 0.19589,4.99673 0,0 -2.96887,10.448 -9.49799,13.067 -2.44526,1.16495 -4.35168,-1.97613 -4.35168,-1.97613 m -23.28836,-17.33761 c 1.83457,-0.5066 4.64594,-7.81452 5.54298,-10.80007 0.64067,-2.76394 3.94396,-15.17646 1.1381,-17.75546 0,0 -2.59357,-2.51539 -6.23084,-2.56693 0,0 -6.98512,-0.0212 -14.05037,3.55006 -13.49924,7.30846 -17.25278,10.00368 -21.94756,15.93915 0,0 -4.66226,6.49939 -7.59773,14.84113 -0.97139,2.8277 -0.3549,4.72666 0.17134,6.74686 0,0 1.37358,4.30313 3.832,3.86858 4.60301,-1.49318 37.37767,-13.04737 39.14208,-13.82332 z m -39.2965,13.8568 c 0,0 -14.586116,5.36005 -15.847488,5.4453 -1.384061,0.0249 -3.246329,-0.15889 -3.754196,-1.90328 -0.321817,-1.03013 1.443642,-4.31317 3.846664,-7.40711 1.330405,-1.46282 4.713561,-4.48976 8.384716,-5.58989 1.13801,-0.35351 3.013494,0.0709 3.013494,0.0709 m 44.0586,-4.64701 13.43484,-4.76891 c 1.74019,-2.90148 1.22195,-8.04362 0.17521,-10.31989 -1.27384,-2.85766 -6.93827,-2.826 -6.93827,-2.826 m 29.49164,5.42835 c -1.56605,-3.78356 -4.143,-10.00334 -8.66549,-11.48226 0,0 -0.99047,-2.35908 -3.0052,-3.99603 0,0 -8.90188,-6.21956 -15.61629,-4.12114 -2.63098,0.64323 -2.12378,4.28273 -2.12378,4.28273" />
      </g>
    </g>
  </g>
</svg>
